<svg xmlns="http://www.w3.org/2000/svg" width="2100" height="1500" viewBox="0 0 2100 1500">
  <defs>
    <style>
      .cls-1 {
        fill: #336799;
        fill-rule: evenodd;
      }
    </style>
  </defs>
  <path id="Fond_12" data-name="Fond 12" class="cls-1" d="M773,975l9,1,5,6a11.213,11.213,0,0,1-4,16c-2.557,2.31-4.054,2.71-9,3-3.152-2.186-5.007-2.475-7-6-2.308-2.557-2.71-4.054-3-9C766.486,980.239,768.633,978.634,773,975Z"/>
  <path id="Fond_11" data-name="Fond 11" class="cls-1" d="M1007,1211c12.33-.34,17.64,6.62,15,18l-7,7c-3-.33-6-0.67-9-1-7.572-2.98-10.143-13.08-4-19C1003.56,1213.53,1005.01,1212.88,1007,1211Z"/>
  <path id="Fond_10" data-name="Fond 10" class="cls-1" d="M1243,1169c2.33,0.33,4.67.67,7,1q3.495,4.005,7,8c0.33,2,.67,4,1,6-2.93,4.56-3.81,7.57-9,10-2,.33-4,0.67-6,1-3.15-2.19-5.01-2.48-7-6-2.31-2.56-2.71-4.05-3-9,1.66-4,2.31-5.94,6-8C1240.33,1171,1241.67,1170,1243,1169Z"/>
  <path id="Fond_9" data-name="Fond 9" class="cls-1" d="M1468,1181c12.87-.63,17.91,6.24,15,18q-3.495,3-7,6h-10q-3-3.495-6-7c-0.15-7.92,1.27-10.59,4-15C1465.33,1182.33,1466.67,1181.67,1468,1181Z"/>
  <path id="Fond_8" data-name="Fond 8" class="cls-1" d="M1654,1126c3,0.33,6,.67,9,1,3.88,1.71,5.25,3.16,7,7,0.33,2.33.67,4.67,1,7q-2.505,4.005-5,8c-3.33.67-6.67,1.33-10,2-2.33-1.33-4.67-2.67-7-4q-1.5-5.505-3-11Q1650.005,1131.005,1654,1126Z"/>
  <path id="Fond_7" data-name="Fond 7" class="cls-1" d="M1357,825c6.1,0.332,8.28,1.746,12,4,0.67,1.667,1.33,3.333,2,5,1.91,6.287-.06,11.5-5,14-1.67,1-3.33,2-5,3-7.49-.929-9.11-3.8-13-8,0.33-3.333.67-6.667,1-10C1351.05,828.537,1353.33,827.687,1357,825Z"/>
  <path id="Fond_6" data-name="Fond 6" class="cls-1" d="M684,580l9,1c4.6,3.333,6.752,6.078,7,14q-0.5,1.5-1,3l-7,7-9-1c-5.6-2.481-7.692-6.2-8-14A39.657,39.657,0,0,1,684,580Z"/>
  <path id="Fond_5" data-name="Fond 5" class="cls-1" d="M709,427l9,1c4.6,3.333,6.752,6.078,7,14q-2.5,4-5,8l-10,2c-6.478-3.022-9.589-5.772-10-15C703.151,432.267,704.536,430.362,709,427Z"/>
  <path id="Fond_4" data-name="Fond 4" class="cls-1" d="M990,546l9,1c5.6,2.481,7.69,6.2,8,14q-2.5,4-5,8l-10,2c-6.478-3.022-9.589-5.772-10-15Z"/>
  <path id="Fond_3" data-name="Fond 3" class="cls-1" d="M1134,356l8,1,6,7c3.15,9.964-4.78,21.591-16,16-1.67-1-3.33-2-5-3-1.22-3.848-2.97-8.511-1-13C1128.05,359.537,1130.33,358.687,1134,356Z"/>
  <path id="Fond_2" data-name="Fond 2" class="cls-1" d="M1664,365l8,1,6,7c0.33,2.666.67,5.334,1,8q-3.495,4.5-7,9c-13.84.924-19.06-5.576-16-18Q1660.005,368.5,1664,365Z"/>
  <path id="Fond_1" data-name="Fond 1" class="cls-1" d="M1183,76l8,1c5.61,2.449,7.85,5.989,8,14q-2.505,4-5,8c-3.33.667-6.67,1.333-10,2-6.48-3.022-9.59-5.772-10-15C1177.15,81.267,1178.54,79.362,1183,76Z"/>
</svg>
